<svg width="171" height="24" viewBox="0 0 171 24" fill="none" xmlns="http://www.w3.org/2000/svg">
<g clip-path="url(#clip0_3_196)">
<path fill-rule="evenodd" clip-rule="evenodd" d="M6 0C9.31368 0 12 2.68629 12 6V0H18C21.3137 0 24 2.68629 24 6C24 9.31368 21.3137 12 18 12C21.3137 12 24 14.6863 24 18C24 19.6454 23.3377 21.1361 22.2651 22.22L22.2427 22.2427L22.2227 22.2625C21.1385 23.3366 19.6468 24 18 24C16.3645 24 14.8817 23.3456 13.7994 22.2843C13.7854 22.2705 13.7713 22.2566 13.7573 22.2427C13.7442 22.2295 13.7311 22.2163 13.7181 22.2031C12.6554 21.1205 12 19.6368 12 18C12 21.3137 9.31368 24 6 24C2.68629 24 0 21.3137 0 18V12H6C2.68629 12 0 9.31368 0 6C0 2.68629 2.68629 0 6 0ZM10.8 6C10.8 8.65098 8.65098 10.8 6 10.8V1.2C8.65098 1.2 10.8 3.34903 10.8 6ZM22.8 18C22.8 15.349 20.651 13.2 18 13.2C15.349 13.2 13.2 15.349 13.2 18H22.8ZM1.2 13.2V18C1.2 20.651 3.34903 22.8 6 22.8C8.65098 22.8 10.8 20.651 10.8 18V13.2H1.2ZM13.2 10.8V1.2H18C20.651 1.2 22.8 3.34903 22.8 6C22.8 8.65098 20.651 10.8 18 10.8H13.2Z" fill="#27AE60"/>
</g>
<path d="M42.4188 1.5H46.7441V15.9312C46.7441 17.2652 46.4443 18.424 45.8447 19.4076C45.2518 20.3912 44.4265 21.1492 43.3687 21.6814C42.311 22.2137 41.0814 22.4798 39.6801 22.4798C38.4337 22.4798 37.3018 22.2608 36.2845 21.8229C35.2739 21.3783 34.4722 20.7045 33.8793 19.8017C33.2864 18.8922 32.9934 17.7502 33.0001 16.3758H37.3557C37.3692 16.9216 37.4804 17.3898 37.6892 17.7806C37.9048 18.1646 38.1979 18.461 38.5684 18.6699C38.9457 18.872 39.3904 18.9731 39.9024 18.9731C40.4414 18.9731 40.8962 18.8585 41.2667 18.6295C41.644 18.3937 41.9303 18.05 42.1257 17.5987C42.3211 17.1473 42.4188 16.5914 42.4188 15.9312V1.5Z" fill="#0068B4"/>
<path d="M57.2946 22.5C55.7248 22.5 54.3673 22.1665 53.222 21.4995C52.0834 20.8258 51.2042 19.8893 50.5843 18.6901C49.9645 17.4841 49.6546 16.0861 49.6546 14.4962C49.6546 12.8927 49.9645 11.4913 50.5843 10.2921C51.2042 9.08614 52.0834 8.14966 53.222 7.48268C54.3673 6.80895 55.7248 6.47209 57.2946 6.47209C58.8644 6.47209 60.2186 6.80895 61.3572 7.48268C62.5025 8.14966 63.3851 9.08614 64.0049 10.2921C64.6248 11.4913 64.9347 12.8927 64.9347 14.4962C64.9347 16.0861 64.6248 17.4841 64.0049 18.6901C63.3851 19.8893 62.5025 20.8258 61.3572 21.4995C60.2186 22.1665 58.8644 22.5 57.2946 22.5ZM57.3148 19.1651C58.029 19.1651 58.6252 18.9629 59.1036 18.5587C59.5819 18.1477 59.9424 17.5885 60.1849 16.8811C60.4342 16.1737 60.5588 15.3686 60.5588 14.4658C60.5588 13.563 60.4342 12.7579 60.1849 12.0505C59.9424 11.3431 59.5819 10.7839 59.1036 10.373C58.6252 9.96198 58.029 9.7565 57.3148 9.7565C56.594 9.7565 55.9876 9.96198 55.4958 10.373C55.0107 10.7839 54.6435 11.3431 54.3942 12.0505C54.1517 12.7579 54.0304 13.563 54.0304 14.4658C54.0304 15.3686 54.1517 16.1737 54.3942 16.8811C54.6435 17.5885 55.0107 18.1477 55.4958 18.5587C55.9876 18.9629 56.594 19.1651 57.3148 19.1651Z" fill="#0068B4"/>
<path d="M67.8148 22.1968V1.5H72.1199V9.28152H72.2513C72.44 8.86381 72.7128 8.43937 73.0699 8.00818C73.4337 7.57026 73.9053 7.20645 74.4847 6.91675C75.0709 6.62031 75.7985 6.47209 76.6676 6.47209C77.7994 6.47209 78.8437 6.76853 79.8004 7.36141C80.7571 7.94755 81.5218 8.83349 82.0944 10.0192C82.6671 11.1983 82.9534 12.6771 82.9534 14.4557C82.9534 16.1872 82.6738 17.6492 82.1147 18.8417C81.5622 20.0274 80.8076 20.9269 79.8509 21.5399C78.901 22.1463 77.8365 22.4495 76.6575 22.4495C75.8221 22.4495 75.1113 22.3114 74.5251 22.0351C73.9457 21.7589 73.4708 21.4119 73.1002 20.9942C72.7297 20.5698 72.4467 20.142 72.2513 19.7108H72.0593V22.1968H67.8148ZM72.029 14.4355C72.029 15.3585 72.157 16.1636 72.413 16.8508C72.669 17.538 73.0396 18.0736 73.5247 18.4577C74.0097 18.8349 74.5993 19.0236 75.2932 19.0236C75.9939 19.0236 76.5867 18.8316 77.0718 18.4475C77.5569 18.0568 77.9241 17.5178 78.1734 16.8306C78.4294 16.1367 78.5574 15.3383 78.5574 14.4355C78.5574 13.5395 78.4327 12.7512 78.1835 12.0707C77.9342 11.3903 77.567 10.858 77.0819 10.474C76.5968 10.09 76.0006 9.89798 75.2932 9.89798C74.5925 9.89798 73.9996 10.0833 73.5146 10.4538C73.0362 10.8244 72.669 11.3499 72.413 12.0303C72.157 12.7108 72.029 13.5125 72.029 14.4355Z" fill="#0068B4"/>
<path d="M92.4934 22.1968V1.5H100.78C102.303 1.5 103.573 1.7257 104.59 2.17709C105.607 2.62849 106.372 3.25505 106.884 4.05679C107.396 4.85178 107.652 5.76805 107.652 6.80558C107.652 7.61405 107.49 8.32483 107.167 8.93792C106.844 9.54427 106.399 10.0428 105.833 10.4336C105.274 10.8176 104.634 11.0905 103.913 11.2522V11.4543C104.701 11.488 105.439 11.7103 106.126 12.1213C106.82 12.5322 107.383 13.1083 107.814 13.8494C108.245 14.5837 108.461 15.4596 108.461 16.4769C108.461 17.5751 108.188 18.5553 107.642 19.4177C107.103 20.2733 106.305 20.9504 105.247 21.449C104.189 21.9475 102.886 22.1968 101.336 22.1968H92.4934ZM96.8692 18.6193H100.437C101.656 18.6193 102.545 18.3869 103.105 17.922C103.664 17.4504 103.943 16.8239 103.943 16.0423C103.943 15.4697 103.805 14.9644 103.529 14.5265C103.253 14.0885 102.859 13.7449 102.347 13.4957C101.841 13.2464 101.238 13.1218 100.538 13.1218H96.8692V18.6193ZM96.8692 10.1607H100.113C100.713 10.1607 101.245 10.0563 101.71 9.84745C102.182 9.63186 102.552 9.32868 102.822 8.93792C103.098 8.54716 103.236 8.07892 103.236 7.53321C103.236 6.78537 102.97 6.18239 102.438 5.72425C101.912 5.26612 101.164 5.03705 100.194 5.03705H96.8692V10.1607Z" fill="#0068B4"/>
<path d="M118.241 22.5C116.671 22.5 115.313 22.1665 114.168 21.4995C113.029 20.8258 112.15 19.8893 111.53 18.6901C110.91 17.4841 110.601 16.0861 110.601 14.4962C110.601 12.8927 110.91 11.4913 111.53 10.2921C112.15 9.08614 113.029 8.14966 114.168 7.48268C115.313 6.80895 116.671 6.47209 118.241 6.47209C119.81 6.47209 121.165 6.80895 122.303 7.48268C123.449 8.14966 124.331 9.08614 124.951 10.2921C125.571 11.4913 125.881 12.8927 125.881 14.4962C125.881 16.0861 125.571 17.4841 124.951 18.6901C124.331 19.8893 123.449 20.8258 122.303 21.4995C121.165 22.1665 119.81 22.5 118.241 22.5ZM118.261 19.1651C118.975 19.1651 119.571 18.9629 120.05 18.5587C120.528 18.1477 120.888 17.5885 121.131 16.8811C121.38 16.1737 121.505 15.3686 121.505 14.4658C121.505 13.563 121.38 12.7579 121.131 12.0505C120.888 11.3431 120.528 10.7839 120.05 10.373C119.571 9.96198 118.975 9.7565 118.261 9.7565C117.54 9.7565 116.934 9.96198 116.442 10.373C115.957 10.7839 115.59 11.3431 115.34 12.0505C115.098 12.7579 114.976 13.563 114.976 14.4658C114.976 15.3686 115.098 16.1737 115.34 16.8811C115.59 17.5885 115.957 18.1477 116.442 18.5587C116.934 18.9629 117.54 19.1651 118.261 19.1651Z" fill="#0068B4"/>
<path d="M133.106 22.4899C132.116 22.4899 131.233 22.3181 130.459 21.9745C129.684 21.6242 129.071 21.1088 128.619 20.4283C128.175 19.7411 127.952 18.8855 127.952 17.8614C127.952 16.999 128.111 16.2748 128.427 15.6886C128.744 15.1025 129.175 14.6309 129.721 14.2738C130.267 13.9167 130.886 13.6473 131.58 13.4654C132.281 13.2834 133.015 13.1554 133.783 13.0813C134.686 12.987 135.414 12.8994 135.966 12.8186C136.519 12.731 136.92 12.603 137.169 12.4346C137.418 12.2661 137.543 12.0168 137.543 11.6867V11.6261C137.543 10.986 137.341 10.4909 136.936 10.1405C136.539 9.79018 135.973 9.61502 135.239 9.61502C134.464 9.61502 133.847 9.78681 133.389 10.1304C132.931 10.4673 132.628 10.8917 132.48 11.4038L128.498 11.0804C128.7 10.1372 129.098 9.32194 129.691 8.63475C130.283 7.94081 131.048 7.40857 131.985 7.03802C132.928 6.66073 134.019 6.47209 135.259 6.47209C136.121 6.47209 136.947 6.57315 137.735 6.77526C138.53 6.97738 139.234 7.29066 139.847 7.71511C140.467 8.13956 140.955 8.68528 141.312 9.35226C141.669 10.0125 141.848 10.8041 141.848 11.7271V22.1968H137.765V20.0443H137.644C137.395 20.5294 137.061 20.9572 136.643 21.3277C136.226 21.6915 135.724 21.9779 135.138 22.1867C134.551 22.3888 133.874 22.4899 133.106 22.4899ZM134.339 19.5188C134.973 19.5188 135.532 19.3941 136.017 19.1449C136.502 18.8888 136.883 18.5452 137.159 18.1141C137.435 17.6829 137.573 17.1944 137.573 16.6487V15.0014C137.438 15.089 137.253 15.1699 137.017 15.244C136.788 15.3114 136.529 15.3754 136.239 15.436C135.949 15.4899 135.66 15.5404 135.37 15.5876C135.08 15.628 134.818 15.6651 134.582 15.6987C134.077 15.7729 133.635 15.8908 133.258 16.0525C132.881 16.2141 132.588 16.4331 132.379 16.7093C132.17 16.9788 132.065 17.3157 132.065 17.7199C132.065 18.3061 132.278 18.7541 132.702 19.064C133.133 19.3672 133.679 19.5188 134.339 19.5188Z" fill="#0068B4"/>
<path d="M145.188 22.1968V6.67421H149.362V9.38258H149.523C149.806 8.41915 150.281 7.69153 150.948 7.19971C151.615 6.70116 152.383 6.45188 153.252 6.45188C153.468 6.45188 153.7 6.46535 153.95 6.4923C154.199 6.51925 154.418 6.5563 154.607 6.60347V10.4235C154.404 10.3628 154.125 10.309 153.768 10.2618C153.411 10.2146 153.084 10.1911 152.788 10.1911C152.154 10.1911 151.588 10.3292 151.09 10.6054C150.598 10.8749 150.207 11.2522 149.917 11.7372C149.635 12.2223 149.493 12.7815 149.493 13.4148V22.1968H145.188Z" fill="#0068B4"/>
<path d="M161.83 22.4495C160.651 22.4495 159.583 22.1463 158.626 21.5399C157.676 20.9269 156.922 20.0274 156.362 18.8417C155.81 17.6492 155.534 16.1872 155.534 14.4557C155.534 12.6771 155.82 11.1983 156.393 10.0192C156.965 8.83349 157.727 7.94755 158.677 7.36141C159.633 6.76853 160.681 6.47209 161.82 6.47209C162.689 6.47209 163.413 6.62031 163.992 6.91675C164.579 7.20645 165.05 7.57026 165.407 8.00818C165.771 8.43937 166.047 8.86381 166.236 9.28152H166.367V1.5H170.662V22.1968H166.418V19.7108H166.236C166.034 20.142 165.747 20.5698 165.377 20.9942C165.013 21.4119 164.538 21.7589 163.952 22.0351C163.373 22.3114 162.665 22.4495 161.83 22.4495ZM163.194 19.0236C163.888 19.0236 164.474 18.8349 164.952 18.4577C165.438 18.0736 165.808 17.538 166.064 16.8508C166.327 16.1636 166.458 15.3585 166.458 14.4355C166.458 13.5125 166.33 12.7108 166.074 12.0303C165.818 11.3499 165.448 10.8244 164.963 10.4538C164.478 10.0833 163.888 9.89798 163.194 9.89798C162.487 9.89798 161.89 10.09 161.405 10.474C160.92 10.858 160.553 11.3903 160.304 12.0707C160.055 12.7512 159.93 13.5395 159.93 14.4355C159.93 15.3383 160.055 16.1367 160.304 16.8306C160.56 17.5178 160.927 18.0568 161.405 18.4475C161.89 18.8316 162.487 19.0236 163.194 19.0236Z" fill="#0068B4"/>
<defs>
<clipPath id="clip0_3_196">
<rect width="24" height="24" fill="white"/>
</clipPath>
</defs>
</svg>
